<mxfile host="app.diagrams.net" modified="2023-03-28T13:09:56.386Z" agent="Mozilla/5.0 (Windows NT 10.0; Win64; x64) AppleWebKit/537.36 (KHTML, like Gecko) Chrome/111.0.0.0 Safari/537.36 Edg/111.0.1661.54" version="21.1.1" etag="JvFiBo1obAnmoy8U9BUI" type="device">
  <diagram id="6WzJKjU1_KtXSiFTwz4n" name="Trang-1">
    <mxGraphModel dx="2204" dy="756" grid="1" gridSize="10" guides="1" tooltips="1" connect="1" arrows="1" fold="1" page="1" pageScale="1" pageWidth="827" pageHeight="1169" math="0" shadow="0">
      <root>
        <mxCell id="0" />
        <mxCell id="1" parent="0" />
        <mxCell id="_HMIhTGrNFbhqY7_e5Of-100" value="" style="rounded=0;whiteSpace=wrap;html=1;strokeWidth=3;" vertex="1" parent="1">
          <mxGeometry x="-480" y="80" width="960" height="760" as="geometry" />
        </mxCell>
        <mxCell id="_HMIhTGrNFbhqY7_e5Of-6" value="user" style="swimlane;fontStyle=1;align=center;verticalAlign=top;childLayout=stackLayout;horizontal=1;startSize=26;horizontalStack=0;resizeParent=1;resizeParentMax=0;resizeLast=0;collapsible=1;marginBottom=0;whiteSpace=wrap;html=1;strokeWidth=2;swimlaneFillColor=default;fillColor=#fff2cc;strokeColor=#d6b656;" vertex="1" parent="1">
          <mxGeometry x="-80" y="200" width="160" height="240" as="geometry" />
        </mxCell>
        <mxCell id="_HMIhTGrNFbhqY7_e5Of-7" value="&lt;b&gt;+ email&lt;/b&gt;&lt;span style=&quot;white-space: pre;&quot;&gt;	&lt;span style=&quot;white-space: pre;&quot;&gt;&lt;b&gt;	&lt;span style=&quot;white-space: pre;&quot;&gt;	&lt;/span&gt;&lt;/b&gt;&lt;/span&gt;&lt;/span&gt;&lt;b&gt;:&lt;/b&gt; String&lt;br&gt;&lt;b&gt;+ phone&lt;span style=&quot;white-space: pre;&quot;&gt;	&lt;/span&gt;&lt;span style=&quot;white-space: pre;&quot;&gt;	&lt;span style=&quot;white-space: pre;&quot;&gt;	&lt;/span&gt;&lt;/span&gt;: &lt;/b&gt;String&lt;br&gt;&lt;b&gt;+ fullname&lt;span style=&quot;white-space: pre;&quot;&gt;	&lt;span style=&quot;white-space: pre;&quot;&gt;	&lt;/span&gt;&lt;/span&gt;:&lt;/b&gt; String" style="text;strokeColor=none;fillColor=none;align=left;verticalAlign=top;spacingLeft=4;spacingRight=4;overflow=hidden;rotatable=0;points=[[0,0.5],[1,0.5]];portConstraint=eastwest;whiteSpace=wrap;html=1;fontStyle=0;strokeWidth=2;" vertex="1" parent="_HMIhTGrNFbhqY7_e5Of-6">
          <mxGeometry y="26" width="160" height="54" as="geometry" />
        </mxCell>
        <mxCell id="_HMIhTGrNFbhqY7_e5Of-8" value="" style="line;strokeWidth=2;fillColor=none;align=left;verticalAlign=middle;spacingTop=-1;spacingLeft=3;spacingRight=3;rotatable=0;labelPosition=right;points=[];portConstraint=eastwest;strokeColor=inherit;fontStyle=0" vertex="1" parent="_HMIhTGrNFbhqY7_e5Of-6">
          <mxGeometry y="80" width="160" height="8" as="geometry" />
        </mxCell>
        <mxCell id="_HMIhTGrNFbhqY7_e5Of-27" value="&lt;b&gt;+ resetPassword()&lt;span style=&quot;white-space: pre;&quot;&gt;	&lt;/span&gt;: &lt;/b&gt;void&lt;br&gt;&lt;b&gt;+ addPayment()&lt;span style=&quot;white-space: pre;&quot;&gt;	&lt;/span&gt;:&lt;/b&gt; void&lt;br&gt;&lt;b&gt;+ deletePayment()&lt;span style=&quot;white-space: pre;&quot;&gt;	&lt;/span&gt;:&lt;/b&gt; void&lt;br&gt;&lt;b&gt;+ viewPayment()&lt;span style=&quot;white-space: pre;&quot;&gt;	&lt;/span&gt;:&lt;/b&gt; void&lt;br&gt;&lt;b&gt;+ saveFilm()&lt;span style=&quot;white-space: pre;&quot;&gt;	&lt;/span&gt;&lt;span style=&quot;white-space: pre;&quot;&gt;	&lt;/span&gt;:&lt;/b&gt; void&lt;br&gt;&lt;b&gt;+ viewService()&lt;span style=&quot;white-space: pre;&quot;&gt;	&lt;/span&gt;:&lt;/b&gt; void&lt;br&gt;&lt;b&gt;+ viewFilm()&lt;span style=&quot;white-space: pre;&quot;&gt;	&lt;/span&gt;&lt;span style=&quot;white-space: pre;&quot;&gt;	&lt;/span&gt;:&lt;/b&gt; void&lt;br&gt;&lt;b&gt;+ getPayment()&lt;span style=&quot;white-space: pre;&quot;&gt;	&lt;/span&gt;:&lt;/b&gt; void&lt;br&gt;&lt;b&gt;+ changeService()&lt;span style=&quot;white-space: pre;&quot;&gt;	&lt;/span&gt;:&lt;/b&gt; void" style="text;strokeColor=none;fillColor=none;align=left;verticalAlign=top;spacingLeft=4;spacingRight=4;overflow=hidden;rotatable=0;points=[[0,0.5],[1,0.5]];portConstraint=eastwest;whiteSpace=wrap;html=1;fontStyle=0;strokeWidth=2;" vertex="1" parent="_HMIhTGrNFbhqY7_e5Of-6">
          <mxGeometry y="88" width="160" height="152" as="geometry" />
        </mxCell>
        <mxCell id="_HMIhTGrNFbhqY7_e5Of-10" value="account" style="swimlane;fontStyle=1;align=center;verticalAlign=top;childLayout=stackLayout;horizontal=1;startSize=26;horizontalStack=0;resizeParent=1;resizeParentMax=0;resizeLast=0;collapsible=1;marginBottom=0;whiteSpace=wrap;html=1;strokeWidth=2;swimlaneFillColor=default;fillColor=#fff2cc;strokeColor=#d6b656;" vertex="1" parent="1">
          <mxGeometry x="-440" y="200" width="200" height="104" as="geometry" />
        </mxCell>
        <mxCell id="_HMIhTGrNFbhqY7_e5Of-11" value="&lt;b&gt;+ email&lt;/b&gt;&lt;span style=&quot;white-space: pre;&quot;&gt;	&lt;span style=&quot;white-space: pre;&quot;&gt;&lt;b&gt;	&lt;span style=&quot;white-space: pre;&quot;&gt;	&lt;/span&gt;&lt;/b&gt;&lt;/span&gt;&lt;/span&gt;&lt;b&gt;:&lt;/b&gt; String&lt;br&gt;&lt;b&gt;+ password&lt;span style=&quot;white-space: pre;&quot;&gt;	&lt;span style=&quot;white-space: pre;&quot;&gt;	&lt;/span&gt;&lt;/span&gt;: &lt;/b&gt;String" style="text;strokeColor=none;fillColor=none;align=left;verticalAlign=top;spacingLeft=4;spacingRight=4;overflow=hidden;rotatable=0;points=[[0,0.5],[1,0.5]];portConstraint=eastwest;whiteSpace=wrap;html=1;fontStyle=0;strokeWidth=2;" vertex="1" parent="_HMIhTGrNFbhqY7_e5Of-10">
          <mxGeometry y="26" width="200" height="44" as="geometry" />
        </mxCell>
        <mxCell id="_HMIhTGrNFbhqY7_e5Of-12" value="" style="line;strokeWidth=2;fillColor=none;align=left;verticalAlign=middle;spacingTop=-1;spacingLeft=3;spacingRight=3;rotatable=0;labelPosition=right;points=[];portConstraint=eastwest;strokeColor=inherit;fontStyle=0" vertex="1" parent="_HMIhTGrNFbhqY7_e5Of-10">
          <mxGeometry y="70" width="200" height="8" as="geometry" />
        </mxCell>
        <mxCell id="_HMIhTGrNFbhqY7_e5Of-13" value="&lt;b&gt;+ checkAccount()&lt;span style=&quot;white-space: pre;&quot;&gt;	&lt;/span&gt;:&lt;/b&gt; boolean" style="text;strokeColor=none;fillColor=none;align=left;verticalAlign=top;spacingLeft=4;spacingRight=4;overflow=hidden;rotatable=0;points=[[0,0.5],[1,0.5]];portConstraint=eastwest;whiteSpace=wrap;html=1;fontStyle=0;strokeWidth=2;" vertex="1" parent="_HMIhTGrNFbhqY7_e5Of-10">
          <mxGeometry y="78" width="200" height="26" as="geometry" />
        </mxCell>
        <mxCell id="_HMIhTGrNFbhqY7_e5Of-59" style="edgeStyle=orthogonalEdgeStyle;rounded=0;orthogonalLoop=1;jettySize=auto;html=1;entryX=0.5;entryY=0;entryDx=0;entryDy=0;strokeWidth=2;endArrow=none;endFill=0;" edge="1" parent="1" source="_HMIhTGrNFbhqY7_e5Of-21" target="_HMIhTGrNFbhqY7_e5Of-10">
          <mxGeometry relative="1" as="geometry">
            <Array as="points">
              <mxPoint x="320" y="120" />
              <mxPoint x="-340" y="120" />
            </Array>
          </mxGeometry>
        </mxCell>
        <mxCell id="_HMIhTGrNFbhqY7_e5Of-101" style="edgeStyle=orthogonalEdgeStyle;rounded=0;orthogonalLoop=1;jettySize=auto;html=1;entryX=0.022;entryY=-0.021;entryDx=0;entryDy=0;endArrow=none;endFill=0;strokeWidth=2;entryPerimeter=0;" edge="1" parent="1" source="_HMIhTGrNFbhqY7_e5Of-21" target="_HMIhTGrNFbhqY7_e5Of-78">
          <mxGeometry relative="1" as="geometry">
            <Array as="points">
              <mxPoint x="81" y="240" />
            </Array>
          </mxGeometry>
        </mxCell>
        <mxCell id="_HMIhTGrNFbhqY7_e5Of-21" value="admin" style="swimlane;fontStyle=1;align=center;verticalAlign=top;childLayout=stackLayout;horizontal=1;startSize=26;horizontalStack=0;resizeParent=1;resizeParentMax=0;resizeLast=0;collapsible=1;marginBottom=0;whiteSpace=wrap;html=1;strokeWidth=2;swimlaneFillColor=default;fillColor=#fff2cc;strokeColor=#d6b656;" vertex="1" parent="1">
          <mxGeometry x="240" y="200" width="160" height="280" as="geometry" />
        </mxCell>
        <mxCell id="_HMIhTGrNFbhqY7_e5Of-25" value="&lt;b&gt;+ email&lt;/b&gt;&lt;span style=&quot;white-space: pre;&quot;&gt;	&lt;span style=&quot;white-space: pre;&quot;&gt;&lt;b&gt;	&lt;span style=&quot;white-space: pre;&quot;&gt;	&lt;/span&gt;&lt;/b&gt;&lt;/span&gt;&lt;/span&gt;&lt;b&gt;:&lt;/b&gt; String&lt;br&gt;&lt;b&gt;+ phone&lt;span style=&quot;white-space: pre;&quot;&gt;	&lt;/span&gt;&lt;span style=&quot;white-space: pre;&quot;&gt;	&lt;span style=&quot;white-space: pre;&quot;&gt;	&lt;/span&gt;&lt;/span&gt;: &lt;/b&gt;String&lt;br&gt;&lt;b&gt;+ fullname&lt;span style=&quot;white-space: pre;&quot;&gt;	&lt;span style=&quot;white-space: pre;&quot;&gt;	&lt;/span&gt;&lt;/span&gt;:&lt;/b&gt; String" style="text;strokeColor=none;fillColor=none;align=left;verticalAlign=top;spacingLeft=4;spacingRight=4;overflow=hidden;rotatable=0;points=[[0,0.5],[1,0.5]];portConstraint=eastwest;whiteSpace=wrap;html=1;fontStyle=0;strokeWidth=2;" vertex="1" parent="_HMIhTGrNFbhqY7_e5Of-21">
          <mxGeometry y="26" width="160" height="54" as="geometry" />
        </mxCell>
        <mxCell id="_HMIhTGrNFbhqY7_e5Of-23" value="" style="line;strokeWidth=2;fillColor=none;align=left;verticalAlign=middle;spacingTop=-1;spacingLeft=3;spacingRight=3;rotatable=0;labelPosition=right;points=[];portConstraint=eastwest;strokeColor=inherit;fontStyle=0" vertex="1" parent="_HMIhTGrNFbhqY7_e5Of-21">
          <mxGeometry y="80" width="160" height="8" as="geometry" />
        </mxCell>
        <mxCell id="_HMIhTGrNFbhqY7_e5Of-24" value="&lt;b&gt;+ resetPassword&lt;span style=&quot;white-space: pre;&quot;&gt;	&lt;/span&gt;: &lt;/b&gt;void&lt;br&gt;&lt;b&gt;+ addFilm()&lt;/b&gt;&lt;span style=&quot;font-weight: bold; white-space: pre;&quot;&gt;	&lt;/span&gt;&lt;span style=&quot;font-weight: bold; white-space: pre;&quot;&gt;	&lt;/span&gt;&lt;b&gt;: &lt;/b&gt;void&lt;br&gt;&lt;b&gt;+ deleteFilm()&lt;span style=&quot;white-space: pre;&quot;&gt;	&lt;/span&gt;&lt;span style=&quot;white-space: pre;&quot;&gt;	&lt;/span&gt;:&lt;/b&gt; void&lt;br&gt;&lt;b&gt;+ editFilm()&lt;span style=&quot;white-space: pre;&quot;&gt;	&lt;/span&gt;&lt;span style=&quot;white-space: pre;&quot;&gt;	&lt;/span&gt;:&lt;/b&gt; void&lt;br&gt;&lt;b&gt;+ viewFilm()&lt;span style=&quot;white-space: pre;&quot;&gt;	&lt;/span&gt;&lt;span style=&quot;white-space: pre;&quot;&gt;	&lt;/span&gt;:&lt;/b&gt; void&lt;br&gt;&lt;b&gt;+ setRoleUser()&lt;span style=&quot;white-space: pre;&quot;&gt;	&lt;/span&gt;:&amp;nbsp;&lt;/b&gt;void&lt;br&gt;&lt;b&gt;+ addService()&lt;span style=&quot;white-space: pre;&quot;&gt;	&lt;/span&gt;:&lt;/b&gt; void&lt;br&gt;&lt;b&gt;+ deleteService()&lt;span style=&quot;white-space: pre;&quot;&gt;	&lt;/span&gt;:&lt;/b&gt; void&lt;br&gt;&lt;b&gt;+ editService()&lt;span style=&quot;white-space: pre;&quot;&gt;	&lt;/span&gt;:&lt;/b&gt; void&lt;br&gt;&lt;b&gt;+ viewService()&lt;span style=&quot;white-space: pre;&quot;&gt;	&lt;/span&gt;:&lt;/b&gt; void&lt;br&gt;&lt;b&gt;+ viewPayment()&lt;span style=&quot;white-space: pre;&quot;&gt;	&lt;/span&gt;:&lt;/b&gt; void&lt;br&gt;&lt;b&gt;+ viewAccount()&lt;span style=&quot;white-space: pre;&quot;&gt;	&lt;/span&gt;:&lt;/b&gt; void" style="text;strokeColor=none;fillColor=none;align=left;verticalAlign=top;spacingLeft=4;spacingRight=4;overflow=hidden;rotatable=0;points=[[0,0.5],[1,0.5]];portConstraint=eastwest;whiteSpace=wrap;html=1;fontStyle=0;strokeWidth=2;" vertex="1" parent="_HMIhTGrNFbhqY7_e5Of-21">
          <mxGeometry y="88" width="160" height="192" as="geometry" />
        </mxCell>
        <mxCell id="_HMIhTGrNFbhqY7_e5Of-26" style="edgeStyle=orthogonalEdgeStyle;rounded=0;orthogonalLoop=1;jettySize=auto;html=1;exitX=1;exitY=0.5;exitDx=0;exitDy=0;" edge="1" parent="_HMIhTGrNFbhqY7_e5Of-21" source="_HMIhTGrNFbhqY7_e5Of-25" target="_HMIhTGrNFbhqY7_e5Of-25">
          <mxGeometry relative="1" as="geometry" />
        </mxCell>
        <mxCell id="_HMIhTGrNFbhqY7_e5Of-79" style="rounded=0;orthogonalLoop=1;jettySize=auto;html=1;endArrow=none;endFill=0;strokeWidth=2;" edge="1" parent="1" source="_HMIhTGrNFbhqY7_e5Of-28">
          <mxGeometry relative="1" as="geometry">
            <mxPoint y="440" as="targetPoint" />
            <Array as="points">
              <mxPoint y="490" />
              <mxPoint y="460" />
            </Array>
          </mxGeometry>
        </mxCell>
        <mxCell id="_HMIhTGrNFbhqY7_e5Of-28" value="film" style="swimlane;fontStyle=1;align=center;verticalAlign=top;childLayout=stackLayout;horizontal=1;startSize=26;horizontalStack=0;resizeParent=1;resizeParentMax=0;resizeLast=0;collapsible=1;marginBottom=0;whiteSpace=wrap;html=1;strokeWidth=2;swimlaneFillColor=default;fillColor=#fff2cc;strokeColor=#d6b656;" vertex="1" parent="1">
          <mxGeometry x="-80" y="600" width="160" height="144" as="geometry" />
        </mxCell>
        <mxCell id="_HMIhTGrNFbhqY7_e5Of-29" value="&lt;b&gt;+ id_film&lt;span style=&quot;white-space: pre;&quot;&gt;	&lt;/span&gt;&lt;span style=&quot;white-space: pre;&quot;&gt;	&lt;/span&gt;&lt;/b&gt;&lt;b&gt;:&lt;/b&gt; String&lt;br&gt;&lt;b&gt;+ name&lt;span style=&quot;white-space: pre;&quot;&gt;	&lt;span style=&quot;white-space: pre;&quot;&gt;	&lt;/span&gt;&lt;/span&gt;: &lt;/b&gt;String&lt;br&gt;&lt;b&gt;+ genres&lt;span style=&quot;white-space: pre;&quot;&gt;	&lt;span style=&quot;white-space: pre;&quot;&gt;	&lt;/span&gt;&lt;/span&gt;:&lt;/b&gt; String&lt;br&gt;&lt;b&gt;+ age&lt;span style=&quot;white-space: pre;&quot;&gt;	&lt;span style=&quot;white-space: pre;&quot;&gt;	&lt;/span&gt;&lt;/span&gt;&lt;span style=&quot;white-space: pre;&quot;&gt;:&lt;/span&gt;&lt;/b&gt;&amp;nbsp;Integer&lt;br&gt;&lt;b&gt;+ information&lt;span style=&quot;white-space: pre;&quot;&gt;	&lt;/span&gt;:&lt;/b&gt; String" style="text;strokeColor=none;fillColor=none;align=left;verticalAlign=top;spacingLeft=4;spacingRight=4;overflow=hidden;rotatable=0;points=[[0,0.5],[1,0.5]];portConstraint=eastwest;whiteSpace=wrap;html=1;fontStyle=0;strokeWidth=2;" vertex="1" parent="_HMIhTGrNFbhqY7_e5Of-28">
          <mxGeometry y="26" width="160" height="84" as="geometry" />
        </mxCell>
        <mxCell id="_HMIhTGrNFbhqY7_e5Of-30" value="" style="line;strokeWidth=2;fillColor=none;align=left;verticalAlign=middle;spacingTop=-1;spacingLeft=3;spacingRight=3;rotatable=0;labelPosition=right;points=[];portConstraint=eastwest;strokeColor=inherit;fontStyle=0" vertex="1" parent="_HMIhTGrNFbhqY7_e5Of-28">
          <mxGeometry y="110" width="160" height="8" as="geometry" />
        </mxCell>
        <mxCell id="_HMIhTGrNFbhqY7_e5Of-44" value="&lt;b&gt;+ saveFilm()&lt;span style=&quot;white-space: pre;&quot;&gt;	&lt;/span&gt;: &lt;/b&gt;boolean" style="text;strokeColor=none;fillColor=none;align=left;verticalAlign=top;spacingLeft=4;spacingRight=4;overflow=hidden;rotatable=0;points=[[0,0.5],[1,0.5]];portConstraint=eastwest;whiteSpace=wrap;html=1;fontStyle=0;strokeWidth=2;" vertex="1" parent="_HMIhTGrNFbhqY7_e5Of-28">
          <mxGeometry y="118" width="160" height="26" as="geometry" />
        </mxCell>
        <mxCell id="_HMIhTGrNFbhqY7_e5Of-32" value="payment" style="swimlane;fontStyle=1;align=center;verticalAlign=top;childLayout=stackLayout;horizontal=1;startSize=26;horizontalStack=0;resizeParent=1;resizeParentMax=0;resizeLast=0;collapsible=1;marginBottom=0;whiteSpace=wrap;html=1;strokeWidth=2;swimlaneFillColor=default;fillColor=#fff2cc;strokeColor=#d6b656;" vertex="1" parent="1">
          <mxGeometry x="-440" y="402" width="160" height="88" as="geometry" />
        </mxCell>
        <mxCell id="_HMIhTGrNFbhqY7_e5Of-33" value="&lt;b&gt;+ id_payment&lt;span style=&quot;white-space: pre;&quot;&gt;	&lt;/span&gt;&lt;/b&gt;&lt;b&gt;:&lt;/b&gt; String&lt;br&gt;&lt;b&gt;+ name&lt;/b&gt;&lt;span style=&quot;font-weight: bold; white-space: pre;&quot;&gt;	&lt;span style=&quot;white-space: pre;&quot;&gt;	&lt;/span&gt;&lt;/span&gt;&lt;b&gt;: &lt;/b&gt;String&lt;br&gt;&lt;b&gt;+ linking&lt;/b&gt;&lt;span style=&quot;font-weight: bold; white-space: pre;&quot;&gt;	&lt;span style=&quot;white-space: pre;&quot;&gt;	&lt;/span&gt;&lt;/span&gt;&lt;b&gt;: &lt;/b&gt;String" style="text;strokeColor=none;fillColor=none;align=left;verticalAlign=top;spacingLeft=4;spacingRight=4;overflow=hidden;rotatable=0;points=[[0,0.5],[1,0.5]];portConstraint=eastwest;whiteSpace=wrap;html=1;fontStyle=0;strokeWidth=2;" vertex="1" parent="_HMIhTGrNFbhqY7_e5Of-32">
          <mxGeometry y="26" width="160" height="54" as="geometry" />
        </mxCell>
        <mxCell id="_HMIhTGrNFbhqY7_e5Of-34" value="" style="line;strokeWidth=2;fillColor=none;align=left;verticalAlign=middle;spacingTop=-1;spacingLeft=3;spacingRight=3;rotatable=0;labelPosition=right;points=[];portConstraint=eastwest;strokeColor=inherit;fontStyle=0" vertex="1" parent="_HMIhTGrNFbhqY7_e5Of-32">
          <mxGeometry y="80" width="160" height="8" as="geometry" />
        </mxCell>
        <mxCell id="_HMIhTGrNFbhqY7_e5Of-93" style="edgeStyle=orthogonalEdgeStyle;rounded=0;orthogonalLoop=1;jettySize=auto;html=1;exitX=0.75;exitY=0;exitDx=0;exitDy=0;entryX=0.75;entryY=1;entryDx=0;entryDy=0;endArrow=none;endFill=0;strokeWidth=2;" edge="1" parent="1" source="_HMIhTGrNFbhqY7_e5Of-35" target="_HMIhTGrNFbhqY7_e5Of-21">
          <mxGeometry relative="1" as="geometry" />
        </mxCell>
        <mxCell id="_HMIhTGrNFbhqY7_e5Of-35" value="service" style="swimlane;fontStyle=1;align=center;verticalAlign=top;childLayout=stackLayout;horizontal=1;startSize=26;horizontalStack=0;resizeParent=1;resizeParentMax=0;resizeLast=0;collapsible=1;marginBottom=0;whiteSpace=wrap;html=1;strokeWidth=2;swimlaneFillColor=default;fillColor=#fff2cc;strokeColor=#d6b656;" vertex="1" parent="1">
          <mxGeometry x="240" y="600" width="160" height="118" as="geometry" />
        </mxCell>
        <mxCell id="_HMIhTGrNFbhqY7_e5Of-36" value="&lt;b&gt;+ id_service&lt;span style=&quot;white-space: pre;&quot;&gt;	&lt;/span&gt;&lt;/b&gt;&lt;b&gt;:&lt;/b&gt; String&lt;br&gt;&lt;b&gt;+ name&lt;span style=&quot;white-space: pre;&quot;&gt;	&lt;span style=&quot;white-space: pre;&quot;&gt;	&lt;/span&gt;&lt;/span&gt;: &lt;/b&gt;String&lt;br&gt;&lt;b&gt;+ exp_date&lt;span style=&quot;white-space: pre;&quot;&gt;	&lt;/span&gt;:&lt;/b&gt; Date&lt;br&gt;&lt;b&gt;+ price&lt;span style=&quot;white-space: pre;&quot;&gt;	&lt;span style=&quot;white-space: pre;&quot;&gt;	&lt;/span&gt;&lt;/span&gt;&lt;span style=&quot;white-space: pre;&quot;&gt;:&lt;/span&gt;&lt;/b&gt;&amp;nbsp;Double&lt;br&gt;&lt;b&gt;+ information&lt;span style=&quot;white-space: pre;&quot;&gt;	&lt;/span&gt;:&lt;/b&gt; String" style="text;strokeColor=none;fillColor=none;align=left;verticalAlign=top;spacingLeft=4;spacingRight=4;overflow=hidden;rotatable=0;points=[[0,0.5],[1,0.5]];portConstraint=eastwest;whiteSpace=wrap;html=1;fontStyle=0;strokeWidth=2;" vertex="1" parent="_HMIhTGrNFbhqY7_e5Of-35">
          <mxGeometry y="26" width="160" height="84" as="geometry" />
        </mxCell>
        <mxCell id="_HMIhTGrNFbhqY7_e5Of-37" value="" style="line;strokeWidth=2;fillColor=none;align=left;verticalAlign=middle;spacingTop=-1;spacingLeft=3;spacingRight=3;rotatable=0;labelPosition=right;points=[];portConstraint=eastwest;strokeColor=inherit;fontStyle=0" vertex="1" parent="_HMIhTGrNFbhqY7_e5Of-35">
          <mxGeometry y="110" width="160" height="8" as="geometry" />
        </mxCell>
        <mxCell id="_HMIhTGrNFbhqY7_e5Of-38" value="history_payment" style="swimlane;fontStyle=1;align=center;verticalAlign=top;childLayout=stackLayout;horizontal=1;startSize=26;horizontalStack=0;resizeParent=1;resizeParentMax=0;resizeLast=0;collapsible=1;marginBottom=0;whiteSpace=wrap;html=1;strokeWidth=2;swimlaneFillColor=default;fillColor=#fff2cc;strokeColor=#d6b656;" vertex="1" parent="1">
          <mxGeometry x="-440" y="600" width="160" height="108" as="geometry">
            <mxRectangle x="560" y="520" width="140" height="30" as="alternateBounds" />
          </mxGeometry>
        </mxCell>
        <mxCell id="_HMIhTGrNFbhqY7_e5Of-39" value="&lt;b&gt;+ id_history&lt;span style=&quot;white-space: pre;&quot;&gt;	&lt;/span&gt;&lt;/b&gt;&lt;b&gt;:&lt;/b&gt; String&lt;br&gt;&lt;b&gt;+ id_payment&lt;span style=&quot;white-space: pre;&quot;&gt;	&lt;/span&gt;: &lt;/b&gt;String&lt;br&gt;&lt;b&gt;+ id_service&lt;span style=&quot;white-space: pre;&quot;&gt;	&lt;/span&gt;:&lt;/b&gt; String&lt;br&gt;&lt;b&gt;+ pay_date&lt;span style=&quot;white-space: pre;&quot;&gt;	&lt;/span&gt;&lt;span style=&quot;white-space: pre;&quot;&gt;:&lt;/span&gt;&lt;/b&gt;&amp;nbsp;Date" style="text;strokeColor=none;fillColor=none;align=left;verticalAlign=top;spacingLeft=4;spacingRight=4;overflow=hidden;rotatable=0;points=[[0,0.5],[1,0.5]];portConstraint=eastwest;whiteSpace=wrap;html=1;fontStyle=0;strokeWidth=2;" vertex="1" parent="_HMIhTGrNFbhqY7_e5Of-38">
          <mxGeometry y="26" width="160" height="74" as="geometry" />
        </mxCell>
        <mxCell id="_HMIhTGrNFbhqY7_e5Of-40" value="" style="line;strokeWidth=2;fillColor=none;align=left;verticalAlign=middle;spacingTop=-1;spacingLeft=3;spacingRight=3;rotatable=0;labelPosition=right;points=[];portConstraint=eastwest;strokeColor=inherit;fontStyle=0" vertex="1" parent="_HMIhTGrNFbhqY7_e5Of-38">
          <mxGeometry y="100" width="160" height="8" as="geometry" />
        </mxCell>
        <mxCell id="_HMIhTGrNFbhqY7_e5Of-50" value="1" style="text;html=1;align=center;verticalAlign=middle;resizable=0;points=[];autosize=1;strokeColor=none;fillColor=none;fontFamily=Helvetica;fontStyle=1;fontSize=10;" vertex="1" parent="1">
          <mxGeometry x="210" y="240" width="30" height="30" as="geometry" />
        </mxCell>
        <mxCell id="_HMIhTGrNFbhqY7_e5Of-53" value="- quản lý -" style="text;html=1;align=center;verticalAlign=middle;resizable=0;points=[];autosize=1;strokeColor=none;fillColor=none;fontFamily=Helvetica;fontStyle=1;fontSize=10;" vertex="1" parent="1">
          <mxGeometry x="160" y="210" width="70" height="30" as="geometry" />
        </mxCell>
        <mxCell id="_HMIhTGrNFbhqY7_e5Of-55" style="edgeStyle=orthogonalEdgeStyle;rounded=0;orthogonalLoop=1;jettySize=auto;html=1;strokeWidth=2;endArrow=none;endFill=0;" edge="1" parent="1" source="_HMIhTGrNFbhqY7_e5Of-7">
          <mxGeometry relative="1" as="geometry">
            <mxPoint x="-240" y="240" as="targetPoint" />
            <Array as="points">
              <mxPoint x="-240" y="240" />
            </Array>
          </mxGeometry>
        </mxCell>
        <mxCell id="_HMIhTGrNFbhqY7_e5Of-56" value="- đăng nhập -" style="text;html=1;align=center;verticalAlign=middle;resizable=0;points=[];autosize=1;strokeColor=none;fillColor=none;fontFamily=Helvetica;fontStyle=1;fontSize=10;" vertex="1" parent="1">
          <mxGeometry x="-180" y="210" width="90" height="30" as="geometry" />
        </mxCell>
        <mxCell id="_HMIhTGrNFbhqY7_e5Of-57" value="1" style="text;html=1;align=center;verticalAlign=middle;resizable=0;points=[];autosize=1;strokeColor=none;fillColor=none;fontFamily=Helvetica;fontStyle=1;fontSize=10;" vertex="1" parent="1">
          <mxGeometry x="-110" y="240" width="30" height="30" as="geometry" />
        </mxCell>
        <mxCell id="_HMIhTGrNFbhqY7_e5Of-58" value="1" style="text;html=1;align=center;verticalAlign=middle;resizable=0;points=[];autosize=1;strokeColor=none;fillColor=none;fontFamily=Helvetica;fontStyle=1;fontSize=10;" vertex="1" parent="1">
          <mxGeometry x="-240" y="240" width="30" height="30" as="geometry" />
        </mxCell>
        <mxCell id="_HMIhTGrNFbhqY7_e5Of-60" value="- quản lý -" style="text;html=1;align=center;verticalAlign=middle;resizable=0;points=[];autosize=1;strokeColor=none;fillColor=none;fontFamily=Helvetica;fontStyle=1;fontSize=10;" vertex="1" parent="1">
          <mxGeometry x="240" y="120" width="70" height="30" as="geometry" />
        </mxCell>
        <mxCell id="_HMIhTGrNFbhqY7_e5Of-61" value="1" style="text;html=1;align=center;verticalAlign=middle;resizable=0;points=[];autosize=1;strokeColor=none;fillColor=none;fontFamily=Helvetica;fontStyle=1;fontSize=10;" vertex="1" parent="1">
          <mxGeometry x="320" y="170" width="30" height="30" as="geometry" />
        </mxCell>
        <mxCell id="_HMIhTGrNFbhqY7_e5Of-62" value="1...*" style="text;html=1;align=center;verticalAlign=middle;resizable=0;points=[];autosize=1;strokeColor=none;fillColor=none;fontFamily=Helvetica;fontStyle=1;fontSize=10;" vertex="1" parent="1">
          <mxGeometry x="-380" y="170" width="40" height="30" as="geometry" />
        </mxCell>
        <mxCell id="_HMIhTGrNFbhqY7_e5Of-63" style="edgeStyle=orthogonalEdgeStyle;rounded=0;orthogonalLoop=1;jettySize=auto;html=1;entryX=-0.02;entryY=0.032;entryDx=0;entryDy=0;endArrow=none;endFill=0;strokeWidth=2;entryPerimeter=0;" edge="1" parent="1" source="_HMIhTGrNFbhqY7_e5Of-27" target="_HMIhTGrNFbhqY7_e5Of-65">
          <mxGeometry relative="1" as="geometry">
            <Array as="points">
              <mxPoint x="-180" y="320" />
              <mxPoint x="-180" y="440" />
              <mxPoint x="-281" y="440" />
            </Array>
          </mxGeometry>
        </mxCell>
        <mxCell id="_HMIhTGrNFbhqY7_e5Of-64" value="1" style="text;html=1;align=center;verticalAlign=middle;resizable=0;points=[];autosize=1;strokeColor=none;fillColor=none;fontFamily=Helvetica;fontStyle=1;fontSize=10;" vertex="1" parent="1">
          <mxGeometry x="-110" y="320" width="30" height="30" as="geometry" />
        </mxCell>
        <mxCell id="_HMIhTGrNFbhqY7_e5Of-65" value="1...*" style="text;html=1;align=center;verticalAlign=middle;resizable=0;points=[];autosize=1;strokeColor=none;fillColor=none;fontFamily=Helvetica;fontStyle=1;fontSize=10;" vertex="1" parent="1">
          <mxGeometry x="-280" y="440" width="40" height="30" as="geometry" />
        </mxCell>
        <mxCell id="_HMIhTGrNFbhqY7_e5Of-66" value="- sở hữu -" style="text;html=1;align=center;verticalAlign=middle;resizable=0;points=[];autosize=1;strokeColor=none;fillColor=none;fontFamily=Helvetica;fontStyle=1;fontSize=10;rotation=0;" vertex="1" parent="1">
          <mxGeometry x="-170" y="290" width="70" height="30" as="geometry" />
        </mxCell>
        <mxCell id="_HMIhTGrNFbhqY7_e5Of-71" value="1" style="text;html=1;align=center;verticalAlign=middle;resizable=0;points=[];autosize=1;strokeColor=none;fillColor=none;fontFamily=Helvetica;fontStyle=1;fontSize=10;" vertex="1" parent="1">
          <mxGeometry x="400" y="380" width="30" height="30" as="geometry" />
        </mxCell>
        <mxCell id="_HMIhTGrNFbhqY7_e5Of-72" value="1...*" style="text;html=1;align=center;verticalAlign=middle;resizable=0;points=[];autosize=1;strokeColor=none;fillColor=none;fontFamily=Helvetica;fontStyle=1;fontSize=10;" vertex="1" parent="1">
          <mxGeometry x="-360" y="708" width="40" height="30" as="geometry" />
        </mxCell>
        <mxCell id="_HMIhTGrNFbhqY7_e5Of-74" style="edgeStyle=orthogonalEdgeStyle;rounded=0;orthogonalLoop=1;jettySize=auto;html=1;entryX=-0.027;entryY=0.026;entryDx=0;entryDy=0;endArrow=none;endFill=0;strokeWidth=2;entryPerimeter=0;" edge="1" parent="1" source="_HMIhTGrNFbhqY7_e5Of-24" target="_HMIhTGrNFbhqY7_e5Of-76">
          <mxGeometry relative="1" as="geometry">
            <Array as="points">
              <mxPoint x="190" y="380" />
              <mxPoint x="190" y="640" />
              <mxPoint x="80" y="640" />
            </Array>
          </mxGeometry>
        </mxCell>
        <mxCell id="_HMIhTGrNFbhqY7_e5Of-75" value="1" style="text;html=1;align=center;verticalAlign=middle;resizable=0;points=[];autosize=1;strokeColor=none;fillColor=none;fontFamily=Helvetica;fontStyle=1;fontSize=10;" vertex="1" parent="1">
          <mxGeometry x="210" y="380" width="30" height="30" as="geometry" />
        </mxCell>
        <mxCell id="_HMIhTGrNFbhqY7_e5Of-76" value="1...*" style="text;html=1;align=center;verticalAlign=middle;resizable=0;points=[];autosize=1;strokeColor=none;fillColor=none;fontFamily=Helvetica;fontStyle=1;fontSize=10;" vertex="1" parent="1">
          <mxGeometry x="80" y="640" width="40" height="30" as="geometry" />
        </mxCell>
        <mxCell id="_HMIhTGrNFbhqY7_e5Of-77" value="- quản lý -" style="text;html=1;align=center;verticalAlign=middle;resizable=0;points=[];autosize=1;strokeColor=none;fillColor=none;fontFamily=Helvetica;fontStyle=1;fontSize=10;" vertex="1" parent="1">
          <mxGeometry x="170" y="350" width="70" height="30" as="geometry" />
        </mxCell>
        <mxCell id="_HMIhTGrNFbhqY7_e5Of-78" value="1...*" style="text;html=1;align=center;verticalAlign=middle;resizable=0;points=[];autosize=1;strokeColor=none;fillColor=none;fontFamily=Helvetica;fontStyle=1;fontSize=10;" vertex="1" parent="1">
          <mxGeometry x="80" y="240" width="40" height="30" as="geometry" />
        </mxCell>
        <mxCell id="_HMIhTGrNFbhqY7_e5Of-80" value="1" style="text;html=1;align=center;verticalAlign=middle;resizable=0;points=[];autosize=1;strokeColor=none;fillColor=none;fontFamily=Helvetica;fontStyle=1;fontSize=10;" vertex="1" parent="1">
          <mxGeometry y="440" width="30" height="30" as="geometry" />
        </mxCell>
        <mxCell id="_HMIhTGrNFbhqY7_e5Of-81" value="1" style="text;html=1;align=center;verticalAlign=middle;resizable=0;points=[];autosize=1;strokeColor=none;fillColor=none;fontFamily=Helvetica;fontStyle=1;fontSize=10;" vertex="1" parent="1">
          <mxGeometry y="570" width="30" height="30" as="geometry" />
        </mxCell>
        <mxCell id="_HMIhTGrNFbhqY7_e5Of-82" value="- xem -" style="text;html=1;align=center;verticalAlign=middle;resizable=0;points=[];autosize=1;strokeColor=none;fillColor=none;fontFamily=Helvetica;fontStyle=1;fontSize=10;rotation=0;" vertex="1" parent="1">
          <mxGeometry x="-50" y="470" width="60" height="30" as="geometry" />
        </mxCell>
        <mxCell id="_HMIhTGrNFbhqY7_e5Of-84" style="edgeStyle=orthogonalEdgeStyle;rounded=0;orthogonalLoop=1;jettySize=auto;html=1;entryX=1.006;entryY=0.2;entryDx=0;entryDy=0;entryPerimeter=0;endArrow=none;endFill=0;strokeWidth=2;" edge="1" parent="1" source="_HMIhTGrNFbhqY7_e5Of-27" target="_HMIhTGrNFbhqY7_e5Of-39">
          <mxGeometry relative="1" as="geometry">
            <Array as="points">
              <mxPoint x="-130" y="380" />
              <mxPoint x="-130" y="641" />
            </Array>
          </mxGeometry>
        </mxCell>
        <mxCell id="_HMIhTGrNFbhqY7_e5Of-85" value="1" style="text;html=1;align=center;verticalAlign=middle;resizable=0;points=[];autosize=1;strokeColor=none;fillColor=none;fontFamily=Helvetica;fontStyle=1;fontSize=10;" vertex="1" parent="1">
          <mxGeometry x="-110" y="380" width="30" height="30" as="geometry" />
        </mxCell>
        <mxCell id="_HMIhTGrNFbhqY7_e5Of-86" value="1...*" style="text;html=1;align=center;verticalAlign=middle;resizable=0;points=[];autosize=1;strokeColor=none;fillColor=none;fontFamily=Helvetica;fontStyle=1;fontSize=10;" vertex="1" parent="1">
          <mxGeometry x="-240" y="639" width="40" height="30" as="geometry" />
        </mxCell>
        <mxCell id="_HMIhTGrNFbhqY7_e5Of-87" value="- xem -" style="text;html=1;align=center;verticalAlign=middle;resizable=0;points=[];autosize=1;strokeColor=none;fillColor=none;fontFamily=Helvetica;fontStyle=1;fontSize=10;rotation=0;" vertex="1" parent="1">
          <mxGeometry x="-180" y="470" width="60" height="30" as="geometry" />
        </mxCell>
        <mxCell id="_HMIhTGrNFbhqY7_e5Of-89" style="edgeStyle=orthogonalEdgeStyle;rounded=0;orthogonalLoop=1;jettySize=auto;html=1;strokeWidth=2;endArrow=none;endFill=0;jumpStyle=arc;" edge="1" parent="1" source="_HMIhTGrNFbhqY7_e5Of-27" target="_HMIhTGrNFbhqY7_e5Of-35">
          <mxGeometry relative="1" as="geometry">
            <Array as="points">
              <mxPoint x="130" y="380" />
              <mxPoint x="130" y="540" />
              <mxPoint x="280" y="540" />
            </Array>
          </mxGeometry>
        </mxCell>
        <mxCell id="_HMIhTGrNFbhqY7_e5Of-90" value="1" style="text;html=1;align=center;verticalAlign=middle;resizable=0;points=[];autosize=1;strokeColor=none;fillColor=none;fontFamily=Helvetica;fontStyle=1;fontSize=10;" vertex="1" parent="1">
          <mxGeometry x="80" y="380" width="30" height="30" as="geometry" />
        </mxCell>
        <mxCell id="_HMIhTGrNFbhqY7_e5Of-91" value="1" style="text;html=1;align=center;verticalAlign=middle;resizable=0;points=[];autosize=1;strokeColor=none;fillColor=none;fontFamily=Helvetica;fontStyle=1;fontSize=10;" vertex="1" parent="1">
          <mxGeometry x="250" y="570" width="30" height="30" as="geometry" />
        </mxCell>
        <mxCell id="_HMIhTGrNFbhqY7_e5Of-92" value="- sử dụng -" style="text;html=1;align=center;verticalAlign=middle;resizable=0;points=[];autosize=1;strokeColor=none;fillColor=none;fontFamily=Helvetica;fontStyle=1;fontSize=10;rotation=0;" vertex="1" parent="1">
          <mxGeometry x="60" y="470" width="80" height="30" as="geometry" />
        </mxCell>
        <mxCell id="_HMIhTGrNFbhqY7_e5Of-94" value="1...*" style="text;html=1;align=center;verticalAlign=middle;resizable=0;points=[];autosize=1;strokeColor=none;fillColor=none;fontFamily=Helvetica;fontStyle=1;fontSize=10;" vertex="1" parent="1">
          <mxGeometry x="355" y="570" width="40" height="30" as="geometry" />
        </mxCell>
        <mxCell id="_HMIhTGrNFbhqY7_e5Of-95" value="1" style="text;html=1;align=center;verticalAlign=middle;resizable=0;points=[];autosize=1;strokeColor=none;fillColor=none;fontFamily=Helvetica;fontStyle=1;fontSize=10;" vertex="1" parent="1">
          <mxGeometry x="360" y="480" width="30" height="30" as="geometry" />
        </mxCell>
        <mxCell id="_HMIhTGrNFbhqY7_e5Of-96" value="- quản lý -" style="text;html=1;align=center;verticalAlign=middle;resizable=0;points=[];autosize=1;strokeColor=none;fillColor=none;fontFamily=Helvetica;fontStyle=1;fontSize=10;" vertex="1" parent="1">
          <mxGeometry x="298" y="510" width="70" height="30" as="geometry" />
        </mxCell>
        <mxCell id="_HMIhTGrNFbhqY7_e5Of-98" style="edgeStyle=orthogonalEdgeStyle;rounded=0;orthogonalLoop=1;jettySize=auto;html=1;strokeWidth=2;endArrow=none;endFill=0;" edge="1" parent="1" source="_HMIhTGrNFbhqY7_e5Of-24" target="_HMIhTGrNFbhqY7_e5Of-40">
          <mxGeometry relative="1" as="geometry">
            <Array as="points">
              <mxPoint x="440" y="380" />
              <mxPoint x="440" y="800" />
              <mxPoint x="-360" y="800" />
            </Array>
          </mxGeometry>
        </mxCell>
        <mxCell id="_HMIhTGrNFbhqY7_e5Of-99" value="- xem -" style="text;html=1;align=center;verticalAlign=middle;resizable=0;points=[];autosize=1;strokeColor=none;fillColor=none;fontFamily=Helvetica;fontStyle=1;fontSize=10;rotation=0;" vertex="1" parent="1">
          <mxGeometry x="400" y="350" width="60" height="30" as="geometry" />
        </mxCell>
      </root>
    </mxGraphModel>
  </diagram>
</mxfile>
